# xmcd
#
# Track frame offsets: 
#        150
#        17700
#        35475
#        54637
#        70050
#        83175
#        96975
#        114000
#        127575
#        166762
#        183600
#        196125
#        231300
#        251550
#        275850
#        303660
#
# Disc length: 4762 seconds
#
# Revision: 2
# Processed by: cddbd v1.5.2PL0 Copyright (c) Steve Scherf et al.
# Submitted via: ExactAudioCopy v0.99pb4
#
DISCID=d6129810
DTITLE=Rod Piazza - Modern Master: The Best of Rod Piazza Disc 1
DYEAR=2003
DGENRE=Blues
TTITLE0=Spoonful
TTITLE1=Juicy Harmonica
TTITLE2=Up the Line
TTITLE3=Help Me
TTITLE4=I Got to Go
TTITLE5=The Bounce
TTITLE6=Talk to Your Daughter
TTITLE7=Shot from the Saddle
TTITLE8=Blues for Honey
TTITLE9=Do the Boogie With You
TTITLE10=You Don't Know
TTITLE11=When I'm Wrong, I'm Wrong
TTITLE12=P.S. I Love You
TTITLE13=Texas Twister
TTITLE14=Harpburn
TTITLE15=Bonus Data Track
EXTD=YEAR: 2003 ID3G: 0
EXTT0=
EXTT1=
EXTT2=
EXTT3=
EXTT4=
EXTT5=
EXTT6=
EXTT7=
EXTT8=
EXTT9=
EXTT10=
EXTT11=
EXTT12=
EXTT13=
EXTT14=
EXTT15=
PLAYORDER=
